{
  "accessors": [
    {
      "bufferView": 2,
      "componentType": 5126,
      "count": 14932,
      "max": [
        1.0180132389068604,
        2.1218430995941162,
        1.0180132389068604
      ],
      "min": [
        -1.0180132389068604,
        -0.018013250082731247,
        -1.0180132389068604
      ],
      "type": "VEC3"
    },
    {
      "bufferView": 2,
      "byteOffset": 179184,
      "componentType": 5126,
      "count": 14932,
      "max": [
        1,
        1,
        1
      ],
      "min": [
        -1,
        -1,
        -1
      ],
      "type": "VEC3"
    },
    {
      "bufferView": 3,
      "componentType": 5126,
      "count": 14932,
      "max": [
        1,
        1,
        1,
        1
      ],
      "min": [
        -1,
        -1,
        -1,
        -1
      ],
      "type": "VEC4"
    },
    {
      "bufferView": 3,
      "byteOffset": 238912,
      "componentType": 5126,
      "count": 14932,
      "max": [
        1,
        0.078431375324726105,
        1,
        1
      ],
      "min": [
        0,
        0,
        0,
        1
      ],
      "type": "VEC4"
    },
    {
      "bufferView": 1,
      "componentType": 5126,
      "count": 14932,
      "max": [
        0.99726277589797974,
        0.99736744165420532
      ],
      "min": [
        0.0026308631058782339,
        0.0026333786081522703
      ],
      "type": "VEC2"
    },
    {
      "bufferView": 0,
      "componentType": 5125,
      "count": 44964,
      "max": [
        14931
      ],
      "min": [
        0
      ],
      "type": "SCALAR"
    },
    {
      "bufferView": 2,
      "byteOffset": 358368,
      "componentType": 5126,
      "count": 480,
      "max": [
        0.015447020530700684,
        0.015446901321411133,
        0.31818458437919617
      ],
      "min": [
        -0.3710331916809082,
        -0.015447139739990234,
        -0.31818458437919617
      ],
      "type": "VEC3"
    },
    {
      "bufferView": 2,
      "byteOffset": 364128,
      "componentType": 5126,
      "count": 480,
      "max": [
        1,
        1,
        1
      ],
      "min": [
        -1,
        -1,
        -1
      ],
      "type": "VEC3"
    },
    {
      "bufferView": 3,
      "byteOffset": 477824,
      "componentType": 5126,
      "count": 480,
      "max": [
        1,
        1,
        1,
        1
      ],
      "min": [
        -1,
        -1,
        -1,
        1
      ],
      "type": "VEC4"
    },
    {
      "bufferView": 3,
      "byteOffset": 485504,
      "componentType": 5126,
      "count": 480,
      "max": [
        1,
        0,
        0,
        1
      ],
      "min": [
        1,
        0,
        0,
        1
      ],
      "type": "VEC4"
    },
    {
      "bufferView": 1,
      "byteOffset": 119456,
      "componentType": 5126,
      "count": 480,
      "max": [
        0.9969935417175293,
        0.94273859262466431
      ],
      "min": [
        0.002632439136505127,
        0.0026386661920696497
      ],
      "type": "VEC2"
    },
    {
      "bufferView": 0,
      "byteOffset": 179856,
      "componentType": 5125,
      "count": 1248,
      "max": [
        479
      ],
      "min": [
        0
      ],
      "type": "SCALAR"
    },
    {
      "bufferView": 2,
      "byteOffset": 369888,
      "componentType": 5126,
      "count": 480,
      "max": [
        0.015447020530700684,
        0.015446901321411133,
        0.31818458437919617
      ],
      "min": [
        -0.3710331916809082,
        -0.015447139739990234,
        -0.31818458437919617
      ],
      "type": "VEC3"
    },
    {
      "bufferView": 2,
      "byteOffset": 375648,
      "componentType": 5126,
      "count": 480,
      "max": [
        1,
        1,
        1
      ],
      "min": [
        -1,
        -1,
        -1
      ],
      "type": "VEC3"
    },
    {
      "bufferView": 3,
      "byteOffset": 493184,
      "componentType": 5126,
      "count": 480,
      "max": [
        1,
        1,
        1,
        1
      ],
      "min": [
        -1,
        -1,
        -1,
        1
      ],
      "type": "VEC4"
    },
    {
      "bufferView": 3,
      "byteOffset": 500864,
      "componentType": 5126,
      "count": 480,
      "max": [
        1,
        0,
        0,
        1
      ],
      "min": [
        1,
        0,
        0,
        1
      ],
      "type": "VEC4"
    },
    {
      "bufferView": 1,
      "byteOffset": 123296,
      "componentType": 5126,
      "count": 480,
      "max": [
        0.99385058879852295,
        0.94273859262466431
      ],
      "min": [
        0.002660214900970459,
        0.0026386689860373735
      ],
      "type": "VEC2"
    },
    {
      "bufferView": 0,
      "byteOffset": 184848,
      "componentType": 5125,
      "count": 1248,
      "max": [
        479
      ],
      "min": [
        0
      ],
      "type": "SCALAR"
    },
    {
      "bufferView": 2,
      "byteOffset": 381408,
      "componentType": 5126,
      "count": 26,
      "max": [
        0.99921959638595581,
        15.013428688049316,
        0.99550402164459229
      ],
      "min": [
        -0.99922031164169312,
        2.0803213119506836,
        -0.99550449848175049
      ],
      "type": "VEC3"
    },
    {
      "bufferView": 2,
      "byteOffset": 381720,
      "componentType": 5126,
      "count": 26,
      "max": [
        0.99137556552886963,
        -0.083285428583621979,
        0.99139875173568726
      ],
      "min": [
        -0.9913780689239502,
        -0.96055638790130615,
        -0.99139875173568726
      ],
      "type": "VEC3"
    },
    {
      "bufferView": 1,
      "byteOffset": 127136,
      "componentType": 5126,
      "count": 26,
      "max": [
        36.21990966796875,
        0.78357625007629395
      ],
      "min": [
        -35.21990966796875,
        0.25422132015228271
      ],
      "type": "VEC2"
    },
    {
      "bufferView": 0,
      "byteOffset": 189840,
      "componentType": 5125,
      "count": 42,
      "max": [
        25
      ],
      "min": [
        0
      ],
      "type": "SCALAR"
    }
  ],
  "asset": {
    "extras": {
      "author": "Elin (https://sketchfab.com/ElinHohler)",
      "license": "CC-BY-4.0 (http://creativecommons.org/licenses/by/4.0/)",
      "source": "https://sketchfab.com/3d-models/shark-cage-02ca137c3f4c4ce8b4537cd515119aed",
      "title": "Shark Cage"
    },
    "generator": "Sketchfab-8.59.0",
    "version": "2.0"
  },
  "bufferViews": [
    {
      "buffer": 0,
      "byteLength": 190008,
      "byteOffset": 0,
      "name": "floatBufferViews",
      "target": 34963
    },
    {
      "buffer": 0,
      "byteLength": 127344,
      "byteOffset": 190008,
      "byteStride": 8,
      "name": "floatBufferViews",
      "target": 34962
    },
    {
      "buffer": 0,
      "byteLength": 382032,
      "byteOffset": 317352,
      "byteStride": 12,
      "name": "floatBufferViews",
      "target": 34962
    },
    {
      "buffer": 0,
      "byteLength": 508544,
      "byteOffset": 699384,
      "byteStride": 16,
      "name": "floatBufferViews",
      "target": 34962
    }
  ],
  "buffers": [
    {
      "byteLength": 1207928,
      "uri": "scene.bin"
    }
  ],
  "images": [
    {
      "uri": "textures/Cage_baseColor.jpeg"
    },
    {
      "uri": "textures/Cage_metallicRoughness.png"
    },
    {
      "uri": "textures/Cage_normal.jpeg"
    },
    {
      "uri": "textures/Rope_baseColor.jpeg"
    }
  ],
  "materials": [
    {
      "doubleSided": true,
      "emissiveFactor": [
        0,
        0,
        0
      ],
      "name": "Cage",
      "normalTexture": {
        "index": 2,
        "scale": 1,
        "texCoord": 0
      },
      "pbrMetallicRoughness": {
        "baseColorFactor": [
          1,
          1,
          1,
          1
        ],
        "baseColorTexture": {
          "index": 0,
          "texCoord": 0
        },
        "metallicFactor": 1,
        "metallicRoughnessTexture": {
          "index": 1,
          "texCoord": 0
        },
        "roughnessFactor": 1
      }
    },
    {
      "doubleSided": true,
      "name": "Rope",
      "pbrMetallicRoughness": {
        "baseColorFactor": [
          1,
          1,
          1,
          1
        ],
        "baseColorTexture": {
          "index": 3,
          "texCoord": 0
        },
        "metallicFactor": 0,
        "roughnessFactor": 0
      }
    }
  ],
  "meshes": [
    {
      "primitives": [
        {
          "attributes": {
            "COLOR_0": 3,
            "NORMAL": 1,
            "POSITION": 0,
            "TANGENT": 2,
            "TEXCOORD_0": 4
          },
          "indices": 5,
          "material": 0,
          "mode": 4
        }
      ]
    },
    {
      "primitives": [
        {
          "attributes": {
            "COLOR_0": 9,
            "NORMAL": 7,
            "POSITION": 6,
            "TANGENT": 8,
            "TEXCOORD_0": 10
          },
          "indices": 11,
          "material": 0,
          "mode": 4
        }
      ]
    },
    {
      "primitives": [
        {
          "attributes": {
            "COLOR_0": 15,
            "NORMAL": 13,
            "POSITION": 12,
            "TANGENT": 14,
            "TEXCOORD_0": 16
          },
          "indices": 17,
          "material": 0,
          "mode": 4
        }
      ]
    },
    {
      "primitives": [
        {
          "attributes": {
            "NORMAL": 19,
            "POSITION": 18,
            "TEXCOORD_0": 20
          },
          "indices": 21,
          "material": 1,
          "mode": 4
        }
      ]
    }
  ],
  "nodes": [
    {
      "children": [
        1
      ],
      "name": "RootNode (gltf orientation matrix)",
      "rotation": [
        -0.70710678118654746,
        -0,
        -0,
        0.70710678118654757
      ]
    },
    {
      "children": [
        2
      ],
      "name": "RootNode (model correction matrix)"
    },
    {
      "children": [
        3
      ],
      "name": "root"
    },
    {
      "children": [
        4
      ],
      "matrix": [
        1,
        0,
        0,
        0,
        0,
        2.2204460492503131e-16,
        1,
        0,
        0,
        -1,
        2.2204460492503131e-16,
        0,
        0,
        0,
        0,
        1
      ],
      "name": "GLTF_SceneRootNode"
    },
    {
      "children": [
        5,
        6,
        8,
        10
      ],
      "name": "Cage_3"
    },
    {
      "mesh": 0,
      "name": ""
    },
    {
      "children": [
        7
      ],
      "matrix": [
        1,
        0,
        0,
        0,
        0,
        1,
        0,
        0,
        0,
        0,
        1,
        0,
        0.86378765106201172,
        2.0951313972473145,
        0,
        1
      ],
      "name": "CageEntrance_01_0"
    },
    {
      "mesh": 1,
      "name": ""
    },
    {
      "children": [
        9
      ],
      "matrix": [
        -0.99999999999992406,
        0,
        3.8941436741877966e-07,
        0,
        -0,
        1,
        0,
        0,
        -3.8941436741877966e-07,
        0,
        -0.99999999999992406,
        0,
        -0.86093431711196899,
        2.0951313972473145,
        0,
        1
      ],
      "name": "CageEntrance_02_1"
    },
    {
      "mesh": 2,
      "name": ""
    },
    {
      "children": [
        11
      ],
      "name": "Rope_2"
    },
    {
      "mesh": 3,
      "name": ""
    }
  ],
  "samplers": [
    {
      "magFilter": 9729,
      "minFilter": 9987,
      "wrapS": 10497,
      "wrapT": 10497
    }
  ],
  "scene": 0,
  "scenes": [
    {
      "name": "OSG_Scene",
      "nodes": [
        0
      ]
    }
  ],
  "textures": [
    {
      "sampler": 0,
      "source": 0
    },
    {
      "sampler": 0,
      "source": 1
    },
    {
      "sampler": 0,
      "source": 2
    },
    {
      "sampler": 0,
      "source": 3
    }
  ]
}

